<?xml version="1.0" encoding="iso-8859-1"?>
<!-- Generator: Adobe Illustrator 19.0.0, SVG Export Plug-In . SVG Version: 6.00 Build 0)  -->
<svg xmlns="http://www.w3.org/2000/svg" xmlns:xlink="http://www.w3.org/1999/xlink" version="1.1" id="Capa_1" x="0px" y="0px" viewBox="0 0 512 512" style="enable-background:new 0 0 512 512;" xml:space="preserve">
<path style="fill:#A4E0F7;" d="M11.804,500.196L11.804,500.196c-5.739-5.739-5.739-15.044,0-20.783l358.711-358.711l20.783,20.783  L32.587,500.196C26.848,505.935,17.543,505.935,11.804,500.196z"/>
<path style="fill:#D59A4C;" d="M308.406,258.107l1.246,1.246c7.871,7.871,7.871,20.631,0,28.502l-21.377,21.377  c-7.694,7.694-20.05,7.845-27.953,0.496l-28.555,28.555c7.349,7.904,7.198,20.259-0.496,27.953l-21.377,21.377  c-7.694,7.694-20.05,7.845-27.953,0.496l-11.304,11.304c-5.957,5.957-11.843,11.619-17.553,16.909  c7.669,7.886,7.612,20.488-0.191,28.291l-21.377,21.377c-7.871,7.871-20.631,7.871-28.502,0l-8.623-8.623  c-0.241-0.11-0.454-0.251-0.632-0.428l-38.7-38.701c-0.178-0.178-0.319-0.39-0.428-0.631l-8.621-8.621  c-7.871-7.871-7.871-20.631,0-28.502l21.377-21.377c7.802-7.802,20.403-7.859,28.289-0.192c5.29-5.709,10.952-11.596,16.909-17.553  l11.304-11.304c-7.348-7.904-7.196-20.258,0.498-27.951l21.377-21.377c7.694-7.694,20.048-7.845,27.951-0.498l28.555-28.555  c-7.348-7.904-7.196-20.258,0.498-27.951l21.377-21.377c7.871-7.87,20.631-7.871,28.502,0l1.244,1.244  c18.972-15.468,33.106-23.826,36.372-20.559l38.7,38.701C332.231,225.001,323.874,239.135,308.406,258.107z M498.597,32.167  l-18.764-18.764c-7.871-7.871-20.631-7.871-28.502,0l-94.057,94.057c-7.871,7.871-7.871,20.631,0,28.502l18.764,18.764  c7.871,7.871,20.631,7.871,28.502,0l94.057-94.057C506.468,52.798,506.468,40.038,498.597,32.167z"/>
<path style="fill:#BC8544;" d="M308.406,258.107l1.246,1.246c7.871,7.871,7.871,20.631,0,28.502l-21.377,21.377  c-7.694,7.694-20.05,7.845-27.953,0.496l-28.555,28.555c7.349,7.904,7.198,20.259-0.496,27.953l-21.377,21.377  c-7.694,7.694-20.05,7.845-27.953,0.496l-11.304,11.304c-5.957,5.957-11.843,11.619-17.553,16.909  c7.669,7.886,7.612,20.488-0.191,28.291l-21.377,21.377c-7.871,7.871-20.631,7.871-28.502,0l-8.623-8.623  c-0.241-0.11-0.454-0.251-0.632-0.428l-16.434-16.434c0.178,0.178,0.39,0.319,0.632,0.428l8.623,8.623  c7.871,7.871,20.631,7.871,28.502,0l21.377-21.377c7.803-7.803,7.859-20.406,0.191-28.291c5.709-5.29,11.596-10.952,17.553-16.909  l11.304-11.304c7.904,7.349,20.259,7.198,27.953-0.496l21.377-21.377c7.694-7.694,7.845-20.05,0.496-27.953l28.555-28.555  c7.904,7.349,20.259,7.198,27.953-0.496l21.377-21.377c7.871-7.871,7.871-20.631,0-28.502l-1.246-1.246  c15.468-18.972,23.826-33.106,20.559-36.372l16.434,16.434C332.231,225.001,323.874,239.135,308.406,258.107z M498.597,32.167  L479.91,13.48c7.871,7.871,7.871,20.632,0,28.502l-94.057,94.057c-7.871,7.871-20.632,7.871-28.502,0l18.687,18.687  c7.871,7.871,20.631,7.871,28.502,0l94.057-94.057C506.468,52.798,506.468,40.038,498.597,32.167z"/>
<path style="fill:#F24F43;" d="M192.793,399.013c7.871,7.871,7.871,20.631,0,28.502l0,0c-7.871,7.871-20.631,7.871-28.502,0  l-79.806-79.806c-7.871-7.871-7.871-20.631,0-28.502l0,0c7.871-7.871,20.631-7.871,28.502,0L192.793,399.013z M349.555,242.251  l-79.806-79.806c-7.871-7.871-20.631-7.871-28.502,0l0,0c-7.871,7.871-7.871,20.631,0,28.502l79.806,79.806  c7.871,7.871,20.631,7.871,28.502,0l0,0C357.425,262.883,357.425,250.122,349.555,242.251z"/>
<path style="fill:#ED322E;" d="M192.793,399.013c7.871,7.871,7.871,20.631,0,28.502l0,0c-7.871,7.871-20.631,7.871-28.502,0  l-20.971-20.971c7.871,7.871,20.631,7.871,28.502,0l0,0c7.871-7.871,7.871-20.631,0-28.502L192.793,399.013z M349.555,242.251  l-20.971-20.971c7.871,7.871,7.871,20.631,0,28.502l0,0c-7.871,7.871-20.631,7.871-28.502,0l20.971,20.971  c7.871,7.871,20.631,7.871,28.502,0l0,0C357.425,262.883,357.425,250.122,349.555,242.251z"/>
<path style="fill:#8EB55E;" d="M191.368,240.826l79.806,79.806c7.871,7.871,7.871,20.631,0,28.502s-20.631,7.871-28.502,0  l-79.806-79.806c-7.871-7.871-7.871-20.631,0-28.502C170.736,232.956,183.497,232.956,191.368,240.826z"/>
<path style="fill:#5BA14D;" d="M250.203,299.661l20.971,20.971c7.871,7.871,7.871,20.631,0,28.502s-20.631,7.871-28.502,0  L221.7,328.163c7.871,7.871,20.631,7.871,28.502,0C258.073,320.293,258.073,307.532,250.203,299.661z"/>
<!-- <path d="M503.9,26.863L485.136,8.101C479.913,2.877,472.969,0,465.582,0s-14.331,2.877-19.554,8.1l-94.058,94.058  c-5.223,5.223-8.099,12.168-8.099,19.554c0,4.304,0.976,8.456,2.823,12.205l-47.434,47.435l-24.208-24.209  c-10.782-10.781-28.326-10.782-39.109,0.001c-5.223,5.223-8.099,12.168-8.099,19.554c0,4.686,1.157,9.192,3.336,13.195  c-4.624,1.241-8.862,3.678-12.337,7.153l-21.376,21.377c-3.547,3.547-5.928,7.827-7.141,12.356  c-10.488-5.693-23.907-4.113-32.763,4.745c-5.223,5.223-8.1,12.168-8.1,19.554c0,4.686,1.157,9.192,3.336,13.195  c-4.624,1.241-8.862,3.678-12.337,7.153l-21.377,21.377c-3.547,3.547-5.927,7.827-7.14,12.356  c-10.487-5.693-23.906-4.112-32.763,4.745c-5.223,5.223-8.1,12.168-8.1,19.554c0,4.69,1.16,9.202,3.343,13.209  c-4.523,1.214-8.798,3.593-12.341,7.137L40.707,375.18c-5.223,5.223-8.1,12.168-8.1,19.555c0,7.386,2.876,14.331,8.1,19.555  l12.808,12.807L6.501,474.109C2.309,478.302,0,483.876,0,489.805s2.309,11.503,6.5,15.693C10.693,509.69,16.267,512,22.196,512  s11.503-2.31,15.695-6.501l47.014-47.014l12.808,12.807c5.223,5.224,12.167,8.101,19.554,8.101s14.332-2.877,19.554-8.1  l21.376-21.376c3.478-3.478,5.915-7.718,7.156-12.344c10.482,5.681,23.892,4.097,32.744-4.754  c8.853-8.853,10.437-22.263,4.754-32.747c4.627-1.24,8.87-3.678,12.348-7.156l21.376-21.377c3.479-3.479,5.916-7.721,7.157-12.348  c10.483,5.683,23.894,4.099,32.746-4.753c8.853-8.853,10.437-22.263,4.754-32.747c4.627-1.24,8.87-3.678,12.348-7.157l21.376-21.376  c3.479-3.479,5.916-7.721,7.157-12.348c10.483,5.683,23.895,4.1,32.747-4.754c10.782-10.782,10.782-28.326,0-39.109l-24.208-24.208  l47.442-47.442c10.325,5.062,23.176,3.306,31.751-5.267L503.9,65.973c5.223-5.224,8.1-12.168,8.1-19.555  S509.123,32.087,503.9,26.863z M27.283,494.893c-1.359,1.358-3.166,2.107-5.088,2.107s-3.729-0.749-5.088-2.108  c-1.359-1.358-2.107-3.165-2.107-5.087s0.748-3.729,2.107-5.088l47.014-47.014l10.176,10.176L27.283,494.893z M147.59,439.31  l-21.377,21.377c-2.39,2.39-5.567,3.706-8.947,3.706s-6.558-1.316-8.948-3.707l-57.004-57.003c-2.39-2.391-3.706-5.568-3.706-8.948  s1.316-6.558,3.706-8.947L72.69,364.41c2.467-2.467,5.708-3.7,8.948-3.7c3.126,0,6.253,1.148,8.685,3.444l57.513,57.514  c2.234,2.358,3.46,5.433,3.46,8.694C151.297,433.742,149.98,436.92,147.59,439.31z M265.87,343.831  c-4.935,4.936-12.962,4.933-17.896,0.001l-11.339-11.34c-0.021-0.021-0.041-0.041-0.062-0.062c-0.011-0.011-0.021-0.021-0.032-0.032  l-7.115-7.115c-2.928-2.928-7.677-2.928-10.606,0c-2.929,2.929-2.929,7.678,0,10.607l7.184,7.184  c2.366,2.387,3.668,5.549,3.668,8.91c0,3.38-1.316,6.558-3.706,8.948l-21.376,21.377c-2.39,2.39-5.568,3.706-8.948,3.706  c-3.348,0-6.498-1.292-8.88-3.64l-29.785-29.785c-2.929-2.928-7.678-2.928-10.606,0c-2.929,2.93-2.929,7.678,0,10.607l29.666,29.665  c0.017,0.018,0.034,0.035,0.052,0.053c0.033,0.032,0.066,0.065,0.1,0.099l11.301,11.302c4.934,4.934,4.934,12.962,0,17.896  c-4.935,4.936-12.962,4.934-17.896,0l-11.033-11.033c-0.121-0.125-0.242-0.248-0.365-0.371c-0.063-0.063-0.127-0.125-0.193-0.187  l-56.615-56.615c-0.064-0.068-0.129-0.136-0.195-0.203c-0.127-0.127-0.255-0.253-0.384-0.377l-11.021-11.021  c-2.39-2.39-3.706-5.567-3.706-8.947s1.316-6.558,3.706-8.947c4.934-4.935,12.961-4.935,17.896,0l11.295,11.295  c0.036,0.035,0.07,0.07,0.105,0.105c0.019,0.019,0.038,0.037,0.056,0.056l9.154,9.154c2.929,2.928,7.678,2.928,10.606,0  c2.929-2.93,2.929-7.678,0-10.607l-9.27-9.27c-4.873-4.939-4.853-12.922,0.061-17.835l21.376-21.377  c2.39-2.39,5.568-3.706,8.948-3.706s6.558,1.316,8.947,3.706c0.015,0.016,0.03,0.03,0.045,0.045l31.043,31.044  c2.929,2.928,7.678,2.928,10.606,0c2.929-2.93,2.929-7.678,0-10.607l-42.489-42.489c-2.39-2.39-3.706-5.567-3.706-8.947  s1.316-6.558,3.706-8.947c4.935-4.934,12.962-4.934,17.896,0l11.311,11.311c0.03,0.03,0.06,0.061,0.09,0.09  c0.016,0.016,0.031,0.031,0.047,0.047l68.358,68.358C270.804,330.869,270.804,338.897,265.87,343.831z M344.251,247.554  c4.934,4.935,4.934,12.963,0,17.896c-4.935,4.936-12.962,4.934-17.896,0l-11.302-11.302c-0.033-0.033-0.065-0.066-0.098-0.099  c-0.018-0.018-0.035-0.035-0.052-0.052l-27.639-27.64c-2.929-2.928-7.678-2.928-10.606,0c-2.929,2.93-2.929,7.678,0,10.607  l27.758,27.758c2.348,2.382,3.639,5.532,3.639,8.88c0,3.38-1.316,6.558-3.706,8.947l-21.376,21.378  c-2.39,2.39-5.568,3.706-8.948,3.706s-6.558-1.316-8.947-3.706c-0.007-0.007-0.014-0.014-0.021-0.021l-57.045-57.045  c-4.873-4.939-4.853-12.922,0.061-17.835l21.376-21.377c2.39-2.39,5.568-3.706,8.948-3.706s6.558,1.316,8.948,3.706  c0.016,0.016,0.031,0.032,0.047,0.047l8.881,8.882c2.929,2.928,7.678,2.928,10.606,0c2.929-2.93,2.929-7.678,0-10.607  l-20.329-20.329c-2.39-2.39-3.706-5.567-3.706-8.947s1.316-6.558,3.706-8.947c4.935-4.934,12.962-4.934,17.896,0L344.251,247.554z   M320.043,202.133l-10.176-10.176l46.398-46.397l10.176,10.176L320.043,202.133z M493.294,55.365l-94.057,94.058  c-4.934,4.934-12.962,4.933-17.896,0.001l-18.764-18.766c-2.39-2.39-3.706-5.567-3.706-8.947s1.316-6.558,3.706-8.947l94.058-94.058  c2.39-2.39,5.567-3.706,8.947-3.706s6.558,1.316,8.948,3.707l18.764,18.764c2.39,2.39,3.706,5.567,3.706,8.947  S495.684,52.976,493.294,55.365z M152.129,316.39c1.472,1.468,2.208,3.396,2.205,5.322c-0.003,1.912-0.732,3.823-2.188,5.284  c-1.465,1.47-3.389,2.205-5.312,2.205c-1.916,0-3.832-0.729-5.295-2.188l-0.737-0.737c-1.455-1.463-2.181-3.376-2.181-5.287  c0-1.928,0.738-3.854,2.213-5.319c2.938-2.92,7.688-2.904,10.606,0.032l0.346,0.347l0,0L152.129,316.39z M91.926,412.948  c1.464,1.465,2.197,3.385,2.197,5.304s-0.732,3.839-2.197,5.304c-1.464,1.464-3.384,2.196-5.303,2.196s-3.839-0.732-5.303-2.196  l-0.721-0.722c-1.457-1.461-2.186-3.372-2.188-5.284c-0.003-1.927,0.732-3.854,2.205-5.322c2.932-2.925,7.681-2.917,10.606,0.017  l0.342,0.342c0.002,0.002,0.003,0.003,0.005,0.005L91.926,412.948z M205.214,340.973c1.472,1.468,2.208,3.396,2.205,5.322  c-0.003,1.912-0.732,3.823-2.188,5.284c-1.465,1.47-3.389,2.205-5.312,2.205c-1.916,0-3.832-0.729-5.295-2.188l-0.729-0.729  c-1.457-1.461-2.186-3.372-2.188-5.284c-0.003-1.927,0.732-3.854,2.205-5.322c2.933-2.925,7.682-2.917,10.606,0.017L205.214,340.973  z M257.635,254.739c-1.916,0-3.831-0.729-5.295-2.188l-0.729-0.729c-1.457-1.461-2.186-3.372-2.188-5.284  c-0.003-1.927,0.732-3.854,2.205-5.322c2.933-2.924,7.682-2.917,10.607,0.017l0.697,0.696c1.472,1.468,2.208,3.396,2.205,5.322  c-0.003,1.912-0.732,3.823-2.188,5.284C261.482,254.004,259.558,254.739,257.635,254.739z M237.635,230.883  c1.472,1.468,2.208,3.396,2.205,5.322c-0.003,1.912-0.732,3.823-2.188,5.284c-1.465,1.47-3.389,2.205-5.312,2.205  c-1.916,0-3.832-0.729-5.295-2.188l-0.721-0.72c-1.464-1.465-2.197-3.384-2.197-5.304c0-1.919,0.732-3.839,2.197-5.304  c2.929-2.928,7.678-2.928,10.606,0L237.635,230.883z M268.647,276.146l0.704,0.704c1.464,1.465,2.197,3.385,2.197,5.304  s-0.732,3.839-2.197,5.304c-1.464,1.464-3.384,2.196-5.303,2.196s-3.839-0.732-5.303-2.196l-0.721-0.722  c-1.457-1.461-2.186-3.372-2.188-5.284c-0.003-1.927,0.732-3.854,2.205-5.322C260.974,273.205,265.722,273.212,268.647,276.146z"/> -->
<g>
</g>
<g>
</g>
<g>
</g>
<g>
</g>
<g>
</g>
<g>
</g>
<g>
</g>
<g>
</g>
<g>
</g>
<g>
</g>
<g>
</g>
<g>
</g>
<g>
</g>
<g>
</g>
<g>
</g>
</svg>
