<?xml version="1.0" encoding="iso-8859-1"?>
<!-- Generator: Adobe Illustrator 19.0.0, SVG Export Plug-In . SVG Version: 6.00 Build 0)  -->
<svg xmlns="http://www.w3.org/2000/svg" xmlns:xlink="http://www.w3.org/1999/xlink" version="1.1" id="Capa_1" x="0px" y="0px" viewBox="0 0 512 512" style="enable-background:new 0 0 512 512;" xml:space="preserve">
<path style="fill:#7A8391;" d="M169.66,183.504h192.276v43.098c0,26.521-21.5,48.021-48.021,48.021h-96.234  c-26.521,0-48.021-21.5-48.021-48.021V183.504z"/>
<path style="fill:#67707A;" d="M341.936,183.504v43.098c0,26.521-21.5,48.021-48.021,48.021h20c26.521,0,48.021-21.5,48.021-48.021  v-43.098H341.936z"/>
<path style="fill:#7A8391;" d="M306.329,53.467L171.797,187.999l-30.475-30.475c-18.753-18.753-18.753-49.159,0-67.912  l68.047-68.047c18.753-18.753,49.159-18.753,67.912,0l29.047,29.047C307.118,51.4,307.118,52.678,306.329,53.467z"/>
<path style="fill:#67707A;" d="M306.329,50.611l-29.047-29.047C259.779,4.061,232.129,2.9,213.272,18.07  c16.704-2.599,35.721,3.556,50.081,17.916l30.228,30.228l12.748-12.748C307.118,52.678,307.118,51.4,306.329,50.611z"/>
<path style="fill:#FA9450;" d="M242.248,365.518h47.1c5.758,0,10.425-4.668,10.425-10.425v-49.577h-67.95v49.577  C231.823,360.85,236.491,365.518,242.248,365.518z"/>
<path style="fill:#E37749;" d="M279.773,305.516v49.577c0,5.758-4.667,10.425-10.425,10.425h20c5.758,0,10.425-4.668,10.425-10.425  v-49.577H279.773z"/>
<rect x="154.29" y="183.5" style="fill:#F2464F;" width="223.02" height="28.644"/>
<rect x="357.31" y="183.5" style="fill:#DB3747;" width="20" height="28.644"/>
<path d="M389.241,502.546l-16.693-62.167c-0.087-0.573-0.234-1.124-0.442-1.647L329.433,279.82  c22.862-6.818,39.589-28.09,39.589-53.221v-6.951h7.839c4.127,0,7.472-3.358,7.472-7.5v-28.644c0-4.142-3.345-7.5-7.472-7.5H361.55  c-4.127,0-7.472,3.358-7.472,7.5s3.345,7.5,7.472,7.5h7.838v13.644H162.135v-13.644h166.459c4.127,0,7.472-3.358,7.472-7.5  s-3.345-7.5-7.472-7.5H194.627L311.429,58.773c3.699-3.713,3.699-9.754-0.001-13.468l-28.941-29.037  C272.04,5.777,258.149,0,243.371,0s-28.669,5.777-39.114,16.266l-9.01,9.041l-2.984-2.995c-7.93-7.959-20.833-7.957-28.765,0  L142.488,43.4c-7.931,7.96-7.931,20.912,0,28.871l2.98,2.991l-9.014,9.046c-5.432,5.457-9.597,11.836-12.38,18.962  c-1.506,3.856,0.387,8.208,4.23,9.72c3.845,1.51,8.178-0.39,9.684-4.246c2.028-5.192,5.069-9.846,9.036-13.831l14.266-14.316  c0.01-0.01,0.022-0.019,0.032-0.029s0.019-0.022,0.029-0.032l53.476-53.664C222.449,19.216,232.587,15,243.371,15  s20.922,4.216,28.547,11.874l25.083,25.166l-123.51,123.964h-2.766l-23.701-23.788c-4.625-4.641-7.964-10.141-9.927-16.346  c-1.248-3.948-5.451-6.132-9.383-4.878c-3.934,1.254-6.11,5.471-4.861,9.418c2.656,8.396,7.361,16.146,13.603,22.413l14.266,14.318  c-2.117,1.324-3.531,3.675-3.531,6.363v28.644c0,4.142,3.345,7.5,7.472,7.5h7.841v6.951c0,25.11,16.7,46.369,39.533,53.205  c-2.391,8.748-7.325,27.075-17.795,66.092c-1.073,4,1.287,8.115,5.273,9.192c0.651,0.176,1.305,0.26,1.948,0.26  c3.295,0,6.313-2.205,7.211-5.551c4.044-15.069,7.287-27.143,9.881-36.782h15.885v42.077c0,9.884,8.011,17.925,17.86,17.925h46.927  c9.848,0,17.86-8.041,17.86-17.925v-42.077h15.784l32.491,120.998H176.101c4.421-16.509,9.248-34.522,14.086-52.569  c1.072-4-1.288-8.115-5.274-9.191c-3.986-1.075-8.085,1.293-9.158,5.293c-16.806,62.679-33.474,125.008-33.474,125.008  c-1.07,4,1.293,8.114,5.279,9.188c0.649,0.175,1.301,0.258,1.942,0.258c3.297,0,6.317-2.208,7.212-5.558  c0,0,6.45-24.117,15.369-57.429h187.304l15.423,57.437c0.898,3.346,3.915,5.55,7.21,5.55c0.644,0,1.298-0.084,1.95-0.26  C387.955,510.662,390.315,506.546,389.241,502.546z M153.057,61.665c-2.105-2.111-2.105-5.547,0-7.659l21.009-21.087  c2.104-2.111,5.526-2.112,7.631,0l2.983,2.994l-28.643,28.744L153.057,61.665z M177.449,226.599v-6.951h176.628v6.951  c0,22.343-18.11,40.52-40.371,40.52H217.82C195.559,267.119,177.449,248.942,177.449,226.599z M292.141,355.092  c0,1.613-1.308,2.925-2.915,2.925h-46.927c-1.607,0-2.915-1.313-2.915-2.925v-42.077h52.757V355.092z M299.613,298.015h-67.702  h-19.317c2.052-7.609,3.422-12.665,4.309-15.92c0.306,0.005,0.609,0.023,0.917,0.023h95.887c0.289,0,0.573-0.017,0.861-0.022  l4.274,15.918h-19.229V298.015z"/>
<path d="M255,340.01h21.524c4.127,0,7.472-3.358,7.472-7.5s-3.345-7.5-7.472-7.5H255c-4.127,0-7.472,3.358-7.472,7.5  C247.528,336.653,250.873,340.01,255,340.01z"/>
<path d="M235.622,244.637h60.28c4.127,0,7.472-3.358,7.472-7.5s-3.345-7.5-7.472-7.5h-60.28c-4.127,0-7.472,3.358-7.472,7.5  S231.495,244.637,235.622,244.637z"/>
<g>
</g>
<g>
</g>
<g>
</g>
<g>
</g>
<g>
</g>
<g>
</g>
<g>
</g>
<g>
</g>
<g>
</g>
<g>
</g>
<g>
</g>
<g>
</g>
<g>
</g>
<g>
</g>
<g>
</g>
</svg>
