<?xml version="1.0" encoding="UTF-8"?>
<svg id="Layer_2" data-name="Layer 2" xmlns="http://www.w3.org/2000/svg" viewBox="0 0 225.5 121.52">
  <defs>
    <style>
      .cls-1 {
        fill: #e9202e;
      }

      .cls-1, .cls-2 {
        stroke-width: 0px;
      }

      .cls-2 {
        fill: #a6f750;
      }
    </style>
  </defs>
  <g id="Layer_1-2" data-name="Layer 1">
    <g id="ifood_logo" data-name="ifood logo">
      <path id="Caminho_1530" data-name="Caminho 1530" class="cls-1" d="m0,69.63h17.17l9.61-48.18H9.61L0,69.63Z"/>
      <path id="Caminho_1531" data-name="Caminho 1531" class="cls-1" d="m11.14,13.89h17.17L31.06,0H13.89l-2.75,13.89Z"/>
      <path id="Caminho_1532" data-name="Caminho 1532" class="cls-1" d="m23.98,83.22h17.17l10.4-52.16h12.54l1.97-9.61h-12.62l.44-2.23c.83-4.11,2.14-8.87,8.61-8.87,3.79-.12,7.57.55,11.09,1.97l1.97-10.13C71.56.78,67.38.05,63.17.04c-13.8,0-23.28,8.39-26.78,21.45h-5.94l-1.88,9.61h5.85l-10.44,52.11Z"/>
      <path id="Caminho_1535" data-name="Caminho 1535" class="cls-1" d="m194.7,68.59h17.08L225.5,0h-17.17l-4.11,20.36c-2.28-.49-4.61-.75-6.94-.79-16.82,0-32.11,21.8-32.11,37.35,0,6.42,4.11,12.71,11.01,12.71,9.87,0,16.69-4.94,19.53-9.52h1.05l-2.06,8.48Z"/>
      <path id="Caminho_1536" data-name="Caminho 1536" class="cls-1" d="m141.84,105.98c-13.21,11.19-30.31,16.7-47.57,15.33-22.98-1.44-38.92-19.57-42.16-37.96h1.09c6.22,13.38,18.91,22.59,33.55,24.38,15.42,1.75,34.34-5.37,44.73-15.51l-11.62-9,34.55.09-7.43,37.26-5.15-14.59Z"/>
    </g>
  </g>
  <g id="Layer_2-2" data-name="Layer 2">
    <path class="cls-2" d="m134.93,22.36c-3.04-1.18-6.43-1.78-9.86-1.73-5.37,0-9.51,1.32-12.73,3.51-3.22-2.19-7.37-3.51-12.73-3.51-3.43-.05-6.83.55-9.87,1.73-17.01,2.63-27.41,11.86-27.41,24.9,0,10.83,7.01,18.81,18.6,22.11,1.04.3,2.11.55,3.19.77,2.36.47,4.79.76,7.23.86,5.47.04,7.53-2.19,7.53-2.19.46-.41.86-.86,1.19-1.33,1.21.48,2.46.89,3.74,1.25,0,0,8.35,3.3,17.04,0,1.28-.36,2.53-.78,3.74-1.25.34.47.73.92,1.19,1.33,0,0,2.07,2.21,7.53,2.19.99-.04,1.94-.11,2.89-.21,1.46-.15,2.91-.36,4.34-.65,1.08-.22,2.15-.47,3.2-.77,11.59-3.32,18.59-11.27,18.59-22.11.01-13.04-10.39-22.27-27.4-24.9Zm-41.95,46.33c-16.28,0-27.46-8.76-27.46-21.43,0-10.16,6.75-17.67,18.45-21.17-3.14,3.12-4.97,7.6-4.97,13.48,0,11.38,7.15,21.41,18.4,26.76-1.07,1.5-2.5,2.36-4.42,2.36Zm5.56-4.43c-9.82-5.01-16.32-13.88-16.32-24.71,0-7.18,3.09-12.54,8.95-15.04.27-.12.56-.23.85-.33,2.37-.83,4.96-1.24,7.58-1.21,4.19,0,7.69.92,10.58,2.85-6.85,6.31-8.54,17.19-9.39,25.91-.41,4.92-.96,9.39-2.25,12.51Zm12.3,3.9c-3.37-.52-6.61-1.41-9.61-2.66,1.49-3.23,2.17-7.87,2.62-13.62,1.13-11.88,3.82-19.8,8.5-24.3,4.68,4.5,7.37,12.42,8.5,24.3.45,5.75,1.14,10.39,2.62,13.62-3,1.25-6.24,2.14-9.61,2.66-1,.15-2.03.15-3.03,0h0Zm15.31-3.9c-1.29-3.12-1.86-7.59-2.28-12.49-.85-8.73-2.54-19.6-9.38-25.91,2.88-1.93,6.39-2.85,10.58-2.85,2.62-.03,5.21.38,7.58,1.21.28.1.57.21.84.33,5.89,2.49,8.95,7.86,8.95,15.04.02,10.81-6.48,19.68-16.3,24.69Zm5.54,4.43c-1.92,0-3.35-.87-4.42-2.36,11.24-5.35,18.4-15.38,18.4-26.76,0-5.88-1.82-10.36-4.97-13.48,11.7,3.5,18.45,11,18.45,21.17,0,12.67-11.17,21.43-27.46,21.43Z"/>
  </g>
</svg>